<?xml version="1.0" encoding="utf-8"?>
<!-- Generator: Adobe Illustrator 15.1.0, SVG Export Plug-In . SVG Version: 6.00 Build 0)  -->
<!DOCTYPE svg PUBLIC "-//W3C//DTD SVG 1.1//EN" "http://www.w3.org/Graphics/SVG/1.1/DTD/svg11.dtd">
<svg version="1.1" id="Github" xmlns="http://www.w3.org/2000/svg" xmlns:xlink="http://www.w3.org/1999/xlink" x="0px" y="0px"
	 width="239.994px" height="239.994px" viewBox="-47.997 -58.56 239.994 239.994"
	 enable-background="new -47.997 -58.56 239.994 239.994" xml:space="preserve">
<g display="none">
	<rect id="github-back" x="-47.997" y="-58.56" display="inline" fill="#929292" width="239.994" height="239.994"/>
</g>
<g display="none">
	<path display="inline" fill="#FFFFFF" d="M-12.447,20.199V4.397h7.746V-18.53h19.52V4.397h12.548v15.802H14.819v43.067
		c0,2.067,0.798,3.617,2.4,4.647c1.601,1.033,3.743,1.548,6.429,1.548c0.722,0,1.395,0,2.014,0c0.62,0,1.239-0.051,1.859-0.153
		v16.421c-1.859,0.309-3.718,0.516-5.578,0.618c-1.859,0.103-3.718,0.156-5.577,0.156c-6.404,0-11.517-1.267-15.336-3.796
		c-3.822-2.528-5.731-6.84-5.731-12.936V20.199H-12.447z"/>
	<rect x="41.464" y="-31.543" fill="#FFFFFF" width="19.52" height="17.661"/>
	<rect x="41.464" y="0.679" display="inline" fill="#FFFFFF" width="19.52" height="84.274"/>
	<path display="inline" fill="#FFFFFF" d="M114.585-11.405h-5.577c-2.377,0-4.082,0.673-5.11,2.014
		c-1.035,1.343-1.552,3.047-1.552,5.112v8.676h11.619v15.802h-11.619v64.754h-19.52V20.199h-8.829V4.397h8.829v-8.057
		c0-4.853,0.488-8.881,1.474-12.082c0.979-3.201,2.452-5.733,4.414-7.591c1.961-1.859,4.311-3.176,7.049-3.951
		c2.735-0.775,5.911-1.162,9.527-1.162c1.445,0,2.944,0.104,4.492,0.31c1.551,0.208,3.151,0.414,4.803,0.62V-11.405z"/>
	<path display="inline" fill="#FFFFFF" d="M157.652-11.405h-5.578c-2.376,0-4.082,0.673-5.112,2.014
		c-1.034,1.343-1.549,3.047-1.549,5.112v8.676h11.619v15.802h-11.619v64.754h-19.52V20.199h-8.829V4.397h8.829v-8.057
		c0-4.853,0.488-8.881,1.473-12.082c0.98-3.201,2.451-5.733,4.413-7.591c1.961-1.859,4.312-3.176,7.05-3.951
		c2.734-0.775,5.911-1.162,9.528-1.162c1.443,0,2.942,0.104,4.492,0.31c1.549,0.208,3.149,0.414,4.803,0.62V-11.405z"/>
	<circle display="inline" fill="#FFFFFF" cx="49.558" cy="-19.448" r="9.708"/>
	<circle display="inline" fill="#FFFFFF" cx="-22.541" cy="76.794" r="9.708"/>
</g>
<text transform="matrix(1 0 0 1 -36.3296 141.4355)" display="none" fill="#FFFFFF" enable-background="new    " font-family="'TradeGothicLT-Bold'" font-size="64.9984">[CODES]</text>
<text transform="matrix(1 0 0 1 -38.9971 128.5869)" fill="#999898" font-family="'TradeGothicLT-Bold'" font-size="54.9984" letter-spacing="5">[CODES]</text>
<rect x="-21.905" y="-3.407" fill="none" width="274.487" height="139.493"/>
<text transform="matrix(1 0 0 1 -21.9048 71.6797)" fill="#999898" font-family="'TradeGothicLT'" font-size="104">tiff</text>
</svg>
